<svg width="138" height="32" fill="none" xmlns="http://www.w3.org/2000/svg" viewBox="0 0 138 32">
  <path
    d="M43.25 22.6a.55.55 0 0 1-.4-.16.55.55 0 0 1-.16-.4V9.96h-4.1a.52.52 0 0 1-.39-.16.52.52 0 0 1-.15-.38V7.39c0-.16.05-.3.15-.4.1-.1.24-.16.39-.16h11.8c.17 0 .3.05.4.16.11.1.17.24.17.4v2.03c0 .15-.06.28-.16.38-.1.1-.24.16-.4.16h-4.1v12.08c0 .16-.05.3-.15.4-.1.1-.24.16-.4.16h-2.5Zm12.72.23a5.8 5.8 0 0 1-4.13-1.45c-1-.96-1.54-2.35-1.6-4.19v-.97a6.7 6.7 0 0 1 .8-2.97 4.63 4.63 0 0 1 1.95-1.91 6.16 6.16 0 0 1 2.95-.68c1.26 0 2.32.26 3.16.79.85.5 1.5 1.21 1.91 2.12.44.88.65 1.9.65 3.06v.52a.5.5 0 0 1-.18.38c-.1.1-.23.16-.38.16h-7.37v.18c.02.48.11.92.27 1.33.19.39.43.7.75.94.33.24.72.36 1.17.36.38 0 .68-.05.92-.15a2.62 2.62 0 0 0 .95-.77c.14-.15.24-.24.32-.27a.94.94 0 0 1 .4-.07h2.34c.15 0 .27.05.36.14.1.07.15.19.14.34-.02.24-.14.54-.38.9-.23.34-.57.69-1.02 1.03a6.2 6.2 0 0 1-1.69.84c-.66.22-1.42.34-2.3.34Zm-2.24-7.2h4.42v-.04c0-.54-.09-1-.27-1.4a2.1 2.1 0 0 0-.74-.94 2.07 2.07 0 0 0-1.2-.34c-.46 0-.86.12-1.2.34-.32.23-.58.54-.76.95-.16.39-.25.85-.25 1.4v.04Zm10.62 6.97a.52.52 0 0 1-.39-.16.55.55 0 0 1-.16-.4v-10.6c0-.16.06-.3.16-.4.1-.1.23-.16.38-.16h2.21c.17 0 .3.06.4.16.11.1.17.24.17.4v.89a4.63 4.63 0 0 1 3.76-1.67 4.12 4.12 0 0 1 3.9 2.34c.39.75.58 1.67.58 2.75v6.29a.5.5 0 0 1-.18.4c-.1.1-.23.16-.38.16h-2.4a.55.55 0 0 1-.4-.16.55.55 0 0 1-.16-.4v-6.15c0-.8-.2-1.42-.59-1.85-.37-.45-.93-.68-1.67-.68-.7 0-1.26.23-1.69.68a2.55 2.55 0 0 0-.63 1.85v6.15c0 .16-.05.3-.15.4-.1.1-.24.16-.39.16h-2.39Zm20.11.23a8.43 8.43 0 0 1-3.6-.7 5.34 5.34 0 0 1-2.28-2.08 7.11 7.11 0 0 1-.9-3.33 81.69 81.69 0 0 1 0-4.01 6.9 6.9 0 0 1 .9-3.29 5.41 5.41 0 0 1 2.32-2.1c1-.48 2.18-.72 3.56-.72 1 0 1.92.13 2.75.39.82.25 1.54.62 2.14 1.1a5.11 5.11 0 0 1 1.94 3.85c0 .14-.06.25-.16.34a.46.46 0 0 1-.34.14h-2.57a.64.64 0 0 1-.43-.14.91.91 0 0 1-.24-.45c-.23-.89-.6-1.5-1.13-1.82a3.62 3.62 0 0 0-1.96-.5c-.93 0-1.67.26-2.2.77-.55.5-.84 1.36-.89 2.54-.04 1.23-.04 2.5 0 3.79.05 1.18.34 2.03.88 2.54a3.1 3.1 0 0 0 2.21.77c.78 0 1.43-.17 1.96-.5.54-.34.92-.95 1.13-1.82.06-.23.14-.38.24-.45.1-.1.25-.14.43-.14h2.57c.14 0 .25.05.34.14.1.09.16.2.16.34a5.11 5.11 0 0 1-1.94 3.85c-.6.48-1.32.85-2.14 1.1-.83.26-1.74.39-2.75.39Zm9.56-.23a.55.55 0 0 1-.4-.16.55.55 0 0 1-.16-.4V7.17a.55.55 0 0 1 .56-.57h2.43c.15 0 .28.06.39.16.1.1.15.24.15.4v5.08a4.5 4.5 0 0 1 3.6-1.58c.9 0 1.68.2 2.35.6.7.4 1.23.98 1.62 1.74.4.75.59 1.67.59 2.75v6.29c0 .16-.05.3-.16.4-.1.1-.24.16-.4.16h-2.46a.52.52 0 0 1-.38-.16.55.55 0 0 1-.16-.4v-6.15c0-.8-.2-1.42-.59-1.85a2.09 2.09 0 0 0-1.66-.68c-.7 0-1.28.23-1.72.68a2.55 2.55 0 0 0-.63 1.85v6.15c0 .16-.05.3-.15.4-.1.1-.24.16-.39.16h-2.43Zm17.16.23c-.8 0-1.5-.15-2.14-.46a4.03 4.03 0 0 1-1.51-1.26 2.96 2.96 0 0 1-.56-1.75c0-1.07.42-1.91 1.28-2.53a8.08 8.08 0 0 1 3.43-1.26l2.95-.43v-.4c0-.59-.14-1.04-.4-1.35-.28-.32-.75-.48-1.43-.48-.5 0-.9.1-1.2.3-.3.2-.52.45-.69.76-.12.2-.3.3-.52.3h-2.14c-.16 0-.3-.05-.38-.14a.46.46 0 0 1-.11-.36c0-.26.1-.56.29-.9.2-.35.5-.69.9-1.02.4-.34.92-.63 1.55-.85.64-.23 1.4-.34 2.33-.34.94 0 1.75.11 2.43.34.67.22 1.21.54 1.62.94.4.4.7.88.9 1.42.2.53.3 1.1.3 1.72v6.96c0 .16-.06.3-.16.4-.1.1-.24.16-.4.16h-2.22a.52.52 0 0 1-.38-.16.55.55 0 0 1-.16-.4v-.84a3.63 3.63 0 0 1-1.98 1.4c-.45.15-.98.23-1.6.23Zm.9-2.35c.5 0 .94-.1 1.33-.31.4-.21.7-.54.92-.97.23-.44.34-.99.34-1.65v-.38l-2.1.34c-.8.13-1.4.34-1.77.6-.38.28-.57.6-.57 1 0 .28.09.53.25.74.18.21.41.37.7.47.28.11.59.16.9.16Zm14.15 2.12a5.8 5.8 0 0 1-2.39-.45 3.27 3.27 0 0 1-1.5-1.44 5.32 5.32 0 0 1-.5-2.44v-4.73h-1.76a.55.55 0 0 1-.4-.15.55.55 0 0 1-.16-.41v-1.53c0-.17.05-.3.16-.4.1-.11.24-.17.4-.17h1.76V7.17c0-.17.05-.3.16-.4a.6.6 0 0 1 .4-.17h2.21c.17 0 .3.06.4.16.11.1.16.24.16.4v3.72H128c.15 0 .28.06.38.16.1.1.16.24.16.4v1.54a.5.5 0 0 1-.16.4.5.5 0 0 1-.38.16h-2.81V18c0 .57.1 1.03.29 1.36.2.31.57.47 1.08.47h1.64a.53.53 0 0 1 .54.54v1.67a.52.52 0 0 1-.54.56h-1.96Z"
    fill="#0F1B33" />
  <path
    d="M5.5 1.47a43.54 43.54 0 0 1 22.45 0 6.71 6.71 0 0 1 4.85 5.2c.87 4.46.87 9.05 0 13.5a6.71 6.71 0 0 1-5.4 5.35.84.84 0 0 0-.64.81v5.33c0 .13-.08.25-.2.3a.33.33 0 0 1-.35-.04l-5.42-4.59a2.34 2.34 0 0 0-1.64-.55c-4.6.26-9.2-.22-13.65-1.4a6.71 6.71 0 0 1-4.85-5.2 35.32 35.32 0 0 1 0-13.5 6.71 6.71 0 0 1 4.85-5.2Zm14.23 18.67c.19 0 .34-.16.34-.34v-6.38h6.35c.19 0 .34-.15.34-.33V7.05a.34.34 0 0 0-.34-.34H7.02a.34.34 0 0 0-.33.34v6.04c0 .18.15.33.33.33h6.36v6.38c0 .18.15.34.33.34h6.02Z"
    fill="#EB575D" />
  <path
    d="M5.4 1.45a42.78 42.78 0 0 1 22.07 0 6.6 6.6 0 0 1 4.76 5.1c.85 4.39.85 8.9 0 13.28a6.6 6.6 0 0 1-5.31 5.25.83.83 0 0 0-.62.8v5.24c0 .12-.08.24-.2.3a.33.33 0 0 1-.35-.05l-5.32-4.51a2.3 2.3 0 0 0-1.61-.54c-4.52.25-9.05-.22-13.42-1.38a6.6 6.6 0 0 1-4.76-5.11 34.71 34.71 0 0 1 0-13.27A6.6 6.6 0 0 1 5.4 1.45Z"
    fill="#FC3234" />
  <path fill-rule="evenodd" clip-rule="evenodd"
    d="M24.45 6.68c0-.5-.4-.9-.9-.9H9.96c-.5 0-.9.4-.9.9v3.17c0 .5.4.9.9.9h3.17c.5 0 .9.41.9.91v8.6c0 .5.41.91.91.91h3.63c.5 0 .9-.4.9-.9v-8.6c0-.5.4-.91.9-.91h3.18c.5 0 .9-.4.9-.9V6.67Z"
    fill="#fff" />
</svg>